<svg width="33" height="33" viewBox="0 0 33 33" fill="none" xmlns="http://www.w3.org/2000/svg">
<mask id="mask0_32_983" style="mask-type:alpha" maskUnits="userSpaceOnUse" x="0" y="0" width="33" height="33">
<rect x="0.771484" y="0.5" width="32" height="32" fill="#D9D9D9"/>
</mask>
<g mask="url(#mask0_32_983)">
<path d="M9.43783 27.1668C7.4156 27.1668 5.68783 26.4668 4.25449 25.0668C2.82116 23.6668 2.10449 21.9557 2.10449 19.9335C2.10449 18.2002 2.62671 16.6557 3.67116 15.3002C4.7156 13.9446 6.08227 13.0779 7.77116 12.7002C8.32671 10.6557 9.43783 9.00016 11.1045 7.7335C12.7712 6.46683 14.66 5.8335 16.7712 5.8335C19.3712 5.8335 21.5767 6.73905 23.3878 8.55016C25.1989 10.3613 26.1045 12.5668 26.1045 15.1668C27.6378 15.3446 28.91 16.0057 29.9212 17.1502C30.9323 18.2946 31.4378 19.6335 31.4378 21.1668C31.4378 22.8335 30.8545 24.2502 29.6878 25.4168C28.5212 26.5835 27.1045 27.1668 25.4378 27.1668H18.1045C17.3712 27.1668 16.7434 26.9057 16.2212 26.3835C15.6989 25.8613 15.4378 25.2335 15.4378 24.5002V17.6335L13.3045 19.7002L11.4378 17.8335L16.7712 12.5002L22.1045 17.8335L20.2378 19.7002L18.1045 17.6335V24.5002H25.4378C26.3712 24.5002 27.16 24.1779 27.8045 23.5335C28.4489 22.8891 28.7712 22.1002 28.7712 21.1668C28.7712 20.2335 28.4489 19.4446 27.8045 18.8002C27.16 18.1557 26.3712 17.8335 25.4378 17.8335H23.4378V15.1668C23.4378 13.3224 22.7878 11.7502 21.4878 10.4502C20.1878 9.15016 18.6156 8.50016 16.7712 8.50016C14.9267 8.50016 13.3545 9.15016 12.0545 10.4502C10.7545 11.7502 10.1045 13.3224 10.1045 15.1668H9.43783C8.14894 15.1668 7.04894 15.6224 6.13783 16.5335C5.22671 17.4446 4.77116 18.5446 4.77116 19.8335C4.77116 21.1224 5.22671 22.2224 6.13783 23.1335C7.04894 24.0446 8.14894 24.5002 9.43783 24.5002H12.7712V27.1668H9.43783Z" fill="#00CF83"/>
</g>
</svg>
