<svg width="48" height="49" xmlns="http://www.w3.org/2000/svg" fill="none">

 <mask height="33" width="33" y="0" x="0" maskUnits="userSpaceOnUse" id="mask0_150_219">
  <rect id="svg_1" fill="#D9D9D9" height="32" width="32" y="0.5" x="0.77148"/>
 </mask>
 <g>
  <title>Layer 1</title>
  <circle id="svg_2" fill="#004949" r="24" cy="24.5" cx="24"/>
  <path id="svg_4" fill="#00CF83" d="m16.66669,35.16665c-2.02223,0 -3.75,-0.7 -5.18334,-2.1c-1.43333,-1.4 -2.15,-3.1111 -2.15,-5.1333c0,-1.7333 0.52222,-3.2778 1.56667,-4.6333c1.04444,-1.3556 2.41111,-2.2223 4.1,-2.6c0.55555,-2.0445 1.66667,-3.70004 3.33334,-4.9667c1.6667,-1.26667 3.5555,-1.9 5.6667,-1.9c2.6,0 4.8055,0.90555 6.6166,2.71666c1.8111,1.81114 2.7167,4.01664 2.7167,6.61664c1.5333,0.1778 2.8055,0.8389 3.8167,1.9834c1.0111,1.1444 1.5166,2.4833 1.5166,4.0166c0,1.6667 -0.5833,3.0834 -1.75,4.25c-1.1666,1.1667 -2.5833,1.75 -4.25,1.75l-7.3333,0c-0.7333,0 -1.3611,-0.2611 -1.8833,-0.7833c-0.5223,-0.5222 -0.7834,-1.15 -0.7834,-1.8833l0,-6.8667l-2.1333,2.0667l-1.8667,-1.8667l5.3334,-5.3333l5.3333,5.3333l-1.8667,1.8667l-2.1333,-2.0667l0,6.8667l7.3333,0c0.9334,0 1.7222,-0.3223 2.3667,-0.9667c0.6444,-0.6444 0.9667,-1.4333 0.9667,-2.3667c0,-0.9333 -0.3223,-1.7222 -0.9667,-2.3666c-0.6445,-0.6445 -1.4333,-0.9667 -2.3667,-0.9667l-2,0l0,-2.6667c0,-1.8444 -0.65,-3.4166 -1.95,-4.7166c-1.3,-1.30004 -2.8722,-1.95004 -4.7166,-1.95004c-1.8445,0 -3.4167,0.65 -4.7167,1.95004c-1.3,1.3 -1.95,2.8722 -1.95,4.7166l-0.66667,0c-1.28889,0 -2.38889,0.4556 -3.3,1.3667c-0.91112,0.9111 -1.36667,2.0111 -1.36667,3.3c0,1.2889 0.45555,2.3889 1.36667,3.3c0.91111,0.9111 2.01111,1.3667 3.3,1.3667l3.33337,0l0,2.6666l-3.33337,0z"/>
 </g>
</svg>