<svg width="36" height="36" viewBox="0 0 36 36" fill="none" xmlns="http://www.w3.org/2000/svg">
<rect width="36" height="36" rx="8" fill="#001919"/>
<mask id="mask0_245_1810" style="mask-type:alpha" maskUnits="userSpaceOnUse" x="5" y="5" width="25" height="25">
<rect x="5.98828" y="5.68555" width="24" height="24" fill="#D9D9D9"/>
</mask>
<g mask="url(#mask0_245_1810)">
<path d="M19.9883 15.5855V13.8855C20.5383 13.6522 21.1008 13.4772 21.6758 13.3605C22.2508 13.2439 22.8549 13.1855 23.4883 13.1855C23.9216 13.1855 24.3466 13.2189 24.7633 13.2855C25.1799 13.3522 25.5883 13.4355 25.9883 13.5355V15.1355C25.5883 14.9855 25.1841 14.873 24.7758 14.798C24.3674 14.723 23.9383 14.6855 23.4883 14.6855C22.8549 14.6855 22.2466 14.7647 21.6633 14.923C21.0799 15.0814 20.5216 15.3022 19.9883 15.5855ZM19.9883 21.0855V19.3855C20.5383 19.1522 21.1008 18.9772 21.6758 18.8605C22.2508 18.7439 22.8549 18.6855 23.4883 18.6855C23.9216 18.6855 24.3466 18.7189 24.7633 18.7855C25.1799 18.8522 25.5883 18.9355 25.9883 19.0355V20.6355C25.5883 20.4855 25.1841 20.373 24.7758 20.298C24.3674 20.223 23.9383 20.1855 23.4883 20.1855C22.8549 20.1855 22.2466 20.2605 21.6633 20.4105C21.0799 20.5605 20.5216 20.7855 19.9883 21.0855ZM19.9883 18.3355V16.6355C20.5383 16.4022 21.1008 16.2272 21.6758 16.1105C22.2508 15.9939 22.8549 15.9355 23.4883 15.9355C23.9216 15.9355 24.3466 15.9689 24.7633 16.0355C25.1799 16.1022 25.5883 16.1855 25.9883 16.2855V17.8855C25.5883 17.7355 25.1841 17.623 24.7758 17.548C24.3674 17.473 23.9383 17.4355 23.4883 17.4355C22.8549 17.4355 22.2466 17.5147 21.6633 17.673C21.0799 17.8314 20.5216 18.0522 19.9883 18.3355ZM12.4883 21.6855C13.2716 21.6855 14.0341 21.773 14.7758 21.948C15.5174 22.123 16.2549 22.3855 16.9883 22.7355V12.8855C16.3049 12.4855 15.5799 12.1855 14.8133 11.9855C14.0466 11.7855 13.2716 11.6855 12.4883 11.6855C11.8883 11.6855 11.2924 11.7439 10.7008 11.8605C10.1091 11.9772 9.53828 12.1522 8.98828 12.3855V22.2855C9.57161 22.0855 10.1508 21.9355 10.7258 21.8355C11.3008 21.7355 11.8883 21.6855 12.4883 21.6855ZM18.9883 22.7355C19.7216 22.3855 20.4591 22.123 21.2008 21.948C21.9424 21.773 22.7049 21.6855 23.4883 21.6855C24.0883 21.6855 24.6758 21.7355 25.2508 21.8355C25.8258 21.9355 26.4049 22.0855 26.9883 22.2855V12.3855C26.4383 12.1522 25.8674 11.9772 25.2758 11.8605C24.6841 11.7439 24.0883 11.6855 23.4883 11.6855C22.7049 11.6855 21.9299 11.7855 21.1633 11.9855C20.3966 12.1855 19.6716 12.4855 18.9883 12.8855V22.7355ZM17.9883 25.6855C17.1883 25.0522 16.3216 24.5605 15.3883 24.2105C14.4549 23.8605 13.4883 23.6855 12.4883 23.6855C11.7883 23.6855 11.1008 23.7772 10.4258 23.9605C9.75078 24.1439 9.10495 24.4022 8.48828 24.7355C8.13828 24.9189 7.80078 24.9105 7.47578 24.7105C7.15078 24.5105 6.98828 24.2189 6.98828 23.8355V11.7855C6.98828 11.6022 7.03411 11.4272 7.12578 11.2605C7.21745 11.0939 7.35495 10.9689 7.53828 10.8855C8.30495 10.4855 9.10495 10.1855 9.93828 9.98555C10.7716 9.78555 11.6216 9.68555 12.4883 9.68555C13.4549 9.68555 14.4008 9.81055 15.3258 10.0605C16.2508 10.3105 17.1383 10.6855 17.9883 11.1855C18.8383 10.6855 19.7258 10.3105 20.6508 10.0605C21.5758 9.81055 22.5216 9.68555 23.4883 9.68555C24.3549 9.68555 25.2049 9.78555 26.0383 9.98555C26.8716 10.1855 27.6716 10.4855 28.4383 10.8855C28.6216 10.9689 28.7591 11.0939 28.8508 11.2605C28.9424 11.4272 28.9883 11.6022 28.9883 11.7855V23.8355C28.9883 24.2189 28.8258 24.5105 28.5008 24.7105C28.1758 24.9105 27.8383 24.9189 27.4883 24.7355C26.8716 24.4022 26.2258 24.1439 25.5508 23.9605C24.8758 23.7772 24.1883 23.6855 23.4883 23.6855C22.4883 23.6855 21.5216 23.8605 20.5883 24.2105C19.6549 24.5605 18.7883 25.0522 17.9883 25.6855Z" fill="#CCD1D1"/>
</g>
</svg> 