<svg width="24" height="25" viewBox="0 0 24 25" fill="none" xmlns="http://www.w3.org/2000/svg">
    <mask id="mask0_38_263" style="mask-type:alpha" maskUnits="userSpaceOnUse" x="0" y="0" width="24" height="25">
    <rect y="0.5" width="24" height="24" fill="#D9D9D9"/>
    </mask>
    <g mask="url(#mask0_38_263)">
    <path d="M6.5 20.5C4.98333 20.5 3.6875 19.975 2.6125 18.925C1.5375 17.875 1 16.5917 1 15.075C1 13.775 1.39167 12.6167 2.175 11.6C2.95833 10.5833 3.98333 9.93333 5.25 9.65C5.66667 8.11667 6.5 6.875 7.75 5.925C9 4.975 10.4167 4.5 12 4.5C13.95 4.5 15.6042 5.17917 16.9625 6.5375C18.3208 7.89583 19 9.55 19 11.5C20.15 11.6333 21.1042 12.1292 21.8625 12.9875C22.6208 13.8458 23 14.85 23 16C23 17.25 22.5625 18.3125 21.6875 19.1875C20.8125 20.0625 19.75 20.5 18.5 20.5H13C12.45 20.5 11.9792 20.3042 11.5875 19.9125C11.1958 19.5208 11 19.05 11 18.5V13.35L9.4 14.9L8 13.5L12 9.5L16 13.5L14.6 14.9L13 13.35V18.5H18.5C19.2 18.5 19.7917 18.2583 20.275 17.775C20.7583 17.2917 21 16.7 21 16C21 15.3 20.7583 14.7083 20.275 14.225C19.7917 13.7417 19.2 13.5 18.5 13.5H17V11.5C17 10.1167 16.5125 8.9375 15.5375 7.9625C14.5625 6.9875 13.3833 6.5 12 6.5C10.6167 6.5 9.4375 6.9875 8.4625 7.9625C7.4875 8.9375 7 10.1167 7 11.5H6.5C5.53333 11.5 4.70833 11.8417 4.025 12.525C3.34167 13.2083 3 14.0333 3 15C3 15.9667 3.34167 16.7917 4.025 17.475C4.70833 18.1583 5.53333 18.5 6.5 18.5H9V20.5H6.5Z" fill="#00CF83"/>
    </g>
</svg> 