<svg width="182" height="165" viewBox="0 0 182 165" fill="none" xmlns="http://www.w3.org/2000/svg">
    <g opacity="0.2">
    <path d="M22.0551 50.5297C21.608 51.5456 21.1153 52.6429 20.6835 53.7147C20.2517 54.7865 19.8047 55.8888 19.4136 56.9861C18.611 59.1251 17.9675 61.3204 17.4883 63.5542L17.341 64.367L17.2902 64.6718C17.2902 64.7582 17.2902 64.8699 17.2597 64.9715C17.2404 65.4661 17.2506 65.9614 17.2902 66.4548C17.3867 67.5266 17.5594 68.6747 17.7982 69.8227C18.2249 72.1238 18.7684 74.4961 19.3221 76.8328L16.7162 77.8488C15.5014 75.6344 14.4669 73.3258 13.6226 70.9453C13.1778 69.7064 12.818 68.4386 12.5457 67.1507C12.3931 66.4382 12.298 65.7145 12.2612 64.9867C12.2612 64.7836 12.2612 64.5905 12.2612 64.3721C12.2612 64.1537 12.2612 63.9098 12.2968 63.7676L12.3984 62.7516C12.5502 61.4432 12.7826 60.1454 13.0943 58.8656C13.3788 57.5957 13.7445 56.3613 14.1103 55.1421C14.476 53.923 14.9332 52.7241 15.4158 51.5456C15.6545 50.9564 15.9238 50.3722 16.1574 49.788C16.3911 49.2039 16.6654 48.6451 16.9905 48.0203L22.0551 50.5297Z" fill="#E4897B"/>
    <path d="M19.185 76.147L21.1662 78.0824L16.8433 80.1143C16.8433 80.1143 15.7968 78.2805 16.5232 76.6245L19.185 76.147Z" fill="#E4897B"/>
    <path d="M22.7661 80.9628L19.1137 82.4562L16.8481 80.0941L21.166 78.0825L22.7661 80.9628Z" fill="#E4897B"/>
    <path opacity="0.4" d="M96.7533 78.88C89.5659 78.073 82.7791 75.1532 77.2509 70.4896C71.7227 65.826 67.7012 59.628 65.695 52.6793C63.6888 45.7305 63.7878 38.3429 65.9796 31.4504C68.1714 24.5579 72.3574 18.47 78.0087 13.9562C83.6599 9.4425 90.5225 6.70561 97.729 6.09155C104.935 5.4775 112.162 7.01385 118.496 10.5064C124.829 13.9989 129.985 19.2909 133.311 25.7132C136.637 32.1355 137.985 39.3998 137.183 46.5878C136.651 51.3635 135.182 55.9875 132.862 60.1954C130.541 64.4033 127.414 68.1127 123.66 71.1117C119.905 74.1106 115.596 76.3402 110.98 77.6732C106.363 79.0061 101.529 79.4162 96.7533 78.88Z" fill="#FAFAFA" fill-opacity="0.4"/>
    <path opacity="0.4" d="M123.361 13.7165L67.7377 58.1595C67.504 57.6515 67.2755 57.1436 67.0621 56.6356C65.6676 53.3186 64.7756 49.8123 64.4155 46.2322L112.46 7.84424C116.405 9.15999 120.092 11.1466 123.361 13.7165Z" fill="#FAFAFA" fill-opacity="0.2"/>
    <path opacity="0.4" d="M136.198 33.1874L83.9015 74.9686C78.9333 72.3788 74.6279 68.68 71.3188 64.1589L128.421 18.5322C132.101 22.7571 134.762 27.7711 136.198 33.1874Z" fill="#FAFAFA" fill-opacity="0.2"/>
    <path d="M138.641 23.8506C133.938 14.0951 125.66 6.52368 115.525 2.70607C105.39 -1.11154 94.1744 -0.882559 84.2034 3.34553C74.2325 7.57362 66.271 15.4765 61.9694 25.416C57.6677 35.3554 57.3559 46.569 61.0985 56.7321C57.7052 57.9208 54.3526 59.1958 51.0202 60.5115C46.2148 62.4181 41.4533 64.4093 36.7359 66.4853C32.0218 68.5731 27.3281 70.7015 22.6801 72.9265C20.3485 74.0186 18.0474 75.1717 15.7259 76.2893C14.5182 76.8082 13.424 77.5589 12.5053 78.499C12.0081 79.0195 11.5703 79.5937 11.1998 80.2109C10.7477 80.9408 10.4054 81.7333 10.1838 82.5628C9.80161 84.0576 9.9669 85.6399 10.6498 87.0235C11.3328 88.4071 12.4883 89.5006 13.9073 90.1063C14.6953 90.4368 15.5268 90.6523 16.3761 90.7463C17.0934 90.8276 17.8177 90.8276 18.535 90.7463C19.8386 90.5881 21.0985 90.1756 22.2433 89.5323C24.5444 88.369 26.8608 87.2464 29.1467 86.0526C33.7185 83.721 38.2903 81.2878 42.8062 78.819C47.3222 76.3502 51.8432 73.7646 56.2524 71.113C59.3003 69.269 62.3786 67.3844 65.396 65.4134C71.1902 74.5604 80.2813 81.1277 90.7856 83.7543C101.29 86.381 112.402 84.8657 121.82 79.5226C131.237 74.1794 138.238 65.4178 141.372 55.0535C144.505 44.6891 143.531 33.5165 138.652 23.8506H138.641ZM115.549 72.3778C109.645 75.2917 103.011 76.3897 96.4831 75.533C89.9557 74.6763 83.8289 71.9033 78.8774 67.5647C73.926 63.2261 70.3722 57.5166 68.6654 51.1584C66.9586 44.8001 67.1755 38.0785 69.2886 31.8435C71.4018 25.6084 75.3163 20.14 80.5371 16.1296C85.758 12.1192 92.0508 9.74701 98.6199 9.31287C105.189 8.87873 111.739 10.4022 117.442 13.6906C123.146 16.9791 127.746 21.8848 130.661 27.7875C132.597 31.7075 133.742 35.9705 134.03 40.3331C134.319 44.6957 133.745 49.0723 132.341 53.213C130.938 57.3538 128.733 61.1775 125.851 64.4658C122.97 67.7542 119.469 70.4427 115.549 72.3778Z" fill="#00CF83"/>
    <path opacity="0.3" d="M138.641 23.8506C133.938 14.0951 125.66 6.52368 115.525 2.70607C105.39 -1.11154 94.1744 -0.882559 84.2034 3.34553C74.2325 7.57362 66.271 15.4765 61.9694 25.416C57.6677 35.3554 57.3559 46.569 61.0985 56.7321C57.7052 57.9208 54.3526 59.1958 51.0202 60.5115C46.2148 62.4181 41.4533 64.4093 36.7359 66.4853C32.0218 68.5731 27.3281 70.7015 22.6801 72.9265C20.3485 74.0186 18.0474 75.1717 15.7259 76.2893C14.5182 76.8082 13.424 77.5589 12.5053 78.499C12.0081 79.0195 11.5703 79.5937 11.1998 80.2109C10.7477 80.9408 10.4054 81.7333 10.1838 82.5628C9.80161 84.0576 9.9669 85.6399 10.6498 87.0235C11.3328 88.4071 12.4883 89.5006 13.9073 90.1063C14.6953 90.4368 15.5268 90.6523 16.3761 90.7463C17.0934 90.8276 17.8177 90.8276 18.535 90.7463C19.8386 90.5881 21.0985 90.1756 22.2433 89.5323C24.5444 88.369 26.8608 87.2464 29.1467 86.0526C33.7185 83.721 38.2903 81.2878 42.8062 78.819C47.3222 76.3502 51.8432 73.7646 56.2524 71.113C59.3003 69.269 62.3786 67.3844 65.396 65.4134C71.1902 74.5604 80.2813 81.1277 90.7856 83.7543C101.29 86.381 112.402 84.8657 121.82 79.5226C131.237 74.1794 138.238 65.4178 141.372 55.0535C144.505 44.6891 143.531 33.5165 138.652 23.8506H138.641ZM115.549 72.3778C109.645 75.2917 103.011 76.3897 96.4831 75.533C89.9557 74.6763 83.8289 71.9033 78.8774 67.5647C73.926 63.2261 70.3722 57.5166 68.6654 51.1584C66.9586 44.8001 67.1755 38.0785 69.2886 31.8435C71.4018 25.6084 75.3163 20.14 80.5371 16.1296C85.758 12.1192 92.0508 9.74701 98.6199 9.31287C105.189 8.87873 111.739 10.4022 117.442 13.6906C123.146 16.9791 127.746 21.8848 130.661 27.7875C132.597 31.7075 133.742 35.9705 134.03 40.3331C134.319 44.6957 133.745 49.0723 132.341 53.213C130.938 57.3538 128.733 61.1775 125.851 64.4658C122.97 67.7542 119.469 70.4427 115.549 72.3778Z" fill="black"/>
    <path d="M36.0957 32.3899C36.0957 32.6896 36.2532 32.9334 36.4513 32.9334C36.6494 32.9334 36.8069 32.6896 36.8069 32.3899C36.8069 32.0901 36.6494 31.8463 36.4513 31.8463C36.2532 31.8463 36.0957 32.1105 36.0957 32.3899Z" fill="#263238"/>
    <path d="M36.2378 32.9335C36.5974 33.8535 37.081 34.72 37.6754 35.5089C37.4699 35.6559 37.2347 35.7562 36.9864 35.8027C36.7381 35.8492 36.4825 35.8408 36.2378 35.7782V32.9335Z" fill="#DE5753"/>
    <path d="M35.0444 30.7185C35.0161 30.7186 34.9881 30.7122 34.9626 30.6999C34.9371 30.6875 34.9147 30.6696 34.8971 30.6474C34.8706 30.6086 34.8601 30.5612 34.8676 30.5148C34.8752 30.4685 34.9003 30.4269 34.9377 30.3985C35.1614 30.2289 35.4228 30.1158 35.6997 30.0689C35.9765 30.022 36.2606 30.0427 36.5277 30.1293C36.5517 30.1358 36.574 30.1473 36.5933 30.163C36.6126 30.1787 36.6283 30.1983 36.6396 30.2205C36.6508 30.2427 36.6573 30.267 36.6585 30.2918C36.6598 30.3166 36.6558 30.3414 36.6469 30.3647C36.638 30.3879 36.6243 30.4089 36.6067 30.4265C36.5891 30.4441 36.5681 30.4578 36.5449 30.4667C36.5217 30.4757 36.4968 30.4796 36.472 30.4784C36.4472 30.4771 36.4229 30.4707 36.4007 30.4595C36.1885 30.3944 35.9638 30.3812 35.7455 30.421C35.5272 30.4608 35.3216 30.5523 35.146 30.6881C35.1159 30.708 35.0805 30.7186 35.0444 30.7185Z" fill="#263238"/>
    <path d="M25.8345 34.6505C26.3424 37.3784 26.9012 42.3819 24.9912 44.2056C24.9912 44.2056 25.7379 46.9741 30.8126 46.9741C36.4004 46.9741 33.4745 44.2056 33.4745 44.2056C30.4266 43.4741 30.5129 41.2187 31.0412 39.0953L25.8345 34.6505Z" fill="#E4897B"/>
    <path d="M22.7103 45.6431C23.3148 44.7033 22.2988 42.4225 22.2988 42.4225C22.2988 42.4225 31.2799 40.162 34.9526 43.6315C35.7145 44.3477 34.8713 45.4043 34.8713 45.4043L22.7103 45.6431Z" fill="#00CF83"/>
    <path opacity="0.1" d="M22.7103 45.6431C23.3148 44.7033 22.2988 42.4225 22.2988 42.4225C22.2988 42.4225 31.2799 40.162 34.9526 43.6315C35.7145 44.3477 34.8713 45.4043 34.8713 45.4043L22.7103 45.6431Z" fill="black"/>
    <path d="M7.85233 149.286C7.37991 149.286 6.62302 148.499 6.39951 148.204C6.3899 148.19 6.38477 148.173 6.38477 148.156C6.38477 148.138 6.3899 148.122 6.39951 148.107C6.40771 148.093 6.41958 148.081 6.43388 148.073C6.44818 148.065 6.46438 148.061 6.48078 148.062C6.53666 148.062 7.78121 148.173 8.12156 148.615C8.15856 148.662 8.185 148.716 8.19903 148.774C8.21306 148.832 8.21436 148.892 8.20283 148.951C8.19841 149.026 8.17063 149.099 8.12331 149.158C8.076 149.217 8.01148 149.26 7.93868 149.281L7.85233 149.286ZM6.67382 148.27C7.04464 148.697 7.63898 149.179 7.89297 149.118C7.89297 149.118 7.99456 149.093 8.02504 148.93C8.03172 148.896 8.03062 148.861 8.02182 148.828C8.01302 148.795 7.99676 148.764 7.97424 148.737C7.59793 148.452 7.14515 148.286 6.67382 148.26V148.27Z" fill="#00CF83"/>
    <path d="M6.72934 148.26C6.63814 148.269 6.54623 148.269 6.45503 148.26C6.43897 148.258 6.42364 148.253 6.41098 148.243C6.39832 148.233 6.3889 148.219 6.38391 148.204C6.37677 148.19 6.37305 148.174 6.37305 148.158C6.37305 148.142 6.37677 148.127 6.38391 148.112C6.41947 148.082 7.1662 147.305 7.73006 147.305C7.79753 147.303 7.86456 147.316 7.92673 147.342C7.9889 147.368 8.04479 147.408 8.09072 147.457C8.14129 147.499 8.1759 147.558 8.18884 147.622C8.20177 147.687 8.19225 147.754 8.16184 147.813C8.01453 148.097 7.23732 148.26 6.72934 148.26ZM6.6633 148.082C7.17128 148.082 7.90785 147.924 8.02976 147.701C8.02976 147.701 8.06532 147.635 7.98405 147.554C7.95448 147.521 7.91825 147.496 7.87788 147.48C7.83752 147.463 7.794 147.455 7.75037 147.457C7.33396 147.553 6.95548 147.77 6.6633 148.082Z" fill="#00CF83"/>
    <path d="M41.3735 160.817C40.9884 160.814 40.6043 160.779 40.2254 160.71C40.2066 160.707 40.1896 160.697 40.1776 160.682C40.1655 160.667 40.159 160.648 40.1594 160.629C40.1565 160.612 40.1589 160.594 40.1661 160.577C40.1733 160.561 40.1851 160.547 40.2 160.538C40.2559 160.507 41.5563 159.761 42.1811 159.933C42.2391 159.946 42.2937 159.971 42.3418 160.006C42.3898 160.041 42.4302 160.085 42.4605 160.136C42.5003 160.193 42.5217 160.26 42.5217 160.329C42.5217 160.399 42.5003 160.466 42.4605 160.522C42.3132 160.751 41.8509 160.817 41.3735 160.817ZM40.515 160.578C41.2058 160.68 42.1507 160.675 42.3234 160.431C42.3488 160.401 42.3691 160.345 42.3234 160.238C42.2846 160.175 42.2226 160.129 42.1507 160.111C41.7544 160.009 40.9671 160.345 40.515 160.578Z" fill="#00CF83"/>
    <path d="M40.2456 160.715C40.229 160.72 40.2114 160.72 40.1948 160.715C40.1807 160.706 40.1697 160.693 40.1633 160.678C40.157 160.662 40.1555 160.645 40.1592 160.629C40.1936 160.1 40.3966 159.596 40.7383 159.191C40.8074 159.132 40.8886 159.088 40.9762 159.062C41.0639 159.037 41.156 159.031 41.2463 159.044C41.4901 159.044 41.5612 159.191 41.5765 159.288C41.6425 159.71 40.7535 160.517 40.3014 160.72L40.2456 160.715ZM41.1549 159.191C41.0431 159.191 40.9348 159.23 40.8501 159.303C40.5628 159.624 40.3849 160.028 40.3421 160.456C40.7993 160.177 41.4088 159.547 41.358 159.293C41.358 159.293 41.358 159.207 41.1853 159.191H41.1549Z" fill="#00CF83"/>
    <path d="M36.1416 160.624H39.8752L40.2461 151.983H36.5124L36.1416 160.624Z" fill="#E4897B"/>
    <path d="M2.89453 145.791L6.01352 147.833L12.9017 142.017L9.77764 139.969L2.89453 145.791Z" fill="#E4897B"/>
    <path d="M6.52621 147.64L3.28531 144.983C3.22805 144.936 3.15623 144.911 3.08212 144.911C3.008 144.911 2.93618 144.936 2.87892 144.983L0.206955 147.081C0.142403 147.133 0.0902719 147.198 0.0544401 147.272C0.0186084 147.347 0 147.428 0 147.511C0 147.593 0.0186084 147.675 0.0544401 147.749C0.0902719 147.823 0.142403 147.888 0.206955 147.94C1.35499 148.849 1.95948 149.235 3.3869 150.404C4.26571 151.12 6.43477 153.314 7.659 154.305C8.88323 155.295 10.0059 154.229 9.59948 153.716C7.77584 151.404 7.05959 149.428 6.85132 148.204C6.81532 147.983 6.6997 147.782 6.52621 147.64Z" fill="#263238"/>
    <path d="M39.8496 160.192H35.7858C35.7117 160.192 35.6398 160.218 35.5818 160.264C35.5237 160.31 35.4829 160.374 35.4658 160.446L34.7292 163.763C34.7107 163.844 34.7107 163.927 34.7293 164.008C34.7478 164.088 34.7844 164.163 34.8363 164.227C34.8882 164.291 34.954 164.343 35.0287 164.378C35.1035 164.413 35.1852 164.43 35.2677 164.429C36.7357 164.403 38.8591 164.317 40.7081 164.317C42.867 164.317 44.7364 164.434 47.2661 164.434C48.79 164.434 49.2269 162.884 48.5818 162.747C45.666 162.107 43.2785 162.041 40.7589 160.482C40.4885 160.303 40.1737 160.202 39.8496 160.192Z" fill="#263238"/>
    <path d="M17.6359 45.318C14.4001 46.8419 12.5562 57.0523 12.5562 57.0523L20.4654 60.2069C21.6231 57.38 22.5589 54.4672 23.2643 51.495C24.3514 46.7911 20.948 43.7433 17.6359 45.318Z" fill="#263238"/>
    <path d="M21.8317 51.0735C19.876 53.0547 18.982 56.9356 18.5908 59.4603L20.4856 60.2172C21.6104 57.4705 22.5273 54.6433 23.2287 51.7593C23.061 50.6824 22.6445 50.2506 21.8317 51.0735Z" fill="#203048"/>
    <path d="M39.2148 45.2469C39.2148 45.2469 43.1872 49.7374 39.4384 77.5035H19.4799C19.3427 74.4556 21.268 59.4957 18.3115 45.0589C20.5172 44.6312 22.7487 44.3495 24.9914 44.2157C27.8167 44.0479 30.6494 44.0479 33.4747 44.2157C35.4118 44.4106 37.331 44.7554 39.2148 45.2469Z" fill="#263238"/>
    <path d="M41.0384 56.0261L37.6756 50.2301C37.0265 52.9344 36.7614 55.7167 36.8882 58.4949C36.9797 60.4862 38.8033 67.862 40.4441 68.939C40.8795 64.6489 41.0779 60.3381 41.0384 56.0261Z" fill="#203048"/>
    <path d="M41.5056 49.2142C42.0136 51.683 42.5216 54.2127 43.0651 56.6917C43.6087 59.1706 44.1725 61.6597 44.8278 64.0624C44.9954 64.6568 45.1529 65.2664 45.3358 65.8353L45.4729 66.2722L45.539 66.4906V66.4652C45.5034 66.4195 45.4628 66.4144 45.4933 66.4652C45.702 66.6932 45.969 66.86 46.2654 66.9478C46.7456 67.1265 47.2401 67.2641 47.7436 67.3592C50.1453 67.7399 52.577 67.898 55.0077 67.8317L55.4903 70.5951C54.8096 70.8135 54.1746 70.971 53.5041 71.1284C52.8335 71.2859 52.1732 71.418 51.4976 71.5196C50.0997 71.7523 48.6825 71.8476 47.2661 71.804C46.4788 71.7828 45.6958 71.6807 44.9294 71.4993C43.9549 71.2861 43.0392 70.8612 42.2473 70.2547C41.73 69.8371 41.3031 69.3186 40.9926 68.7308C40.9113 68.5784 40.8402 68.4057 40.7741 68.2584L40.6827 68.0196L40.4947 67.5116C40.2357 66.8665 40.0223 66.2315 39.7887 65.5965C38.9302 63.0567 38.2139 60.4914 37.584 57.9311C36.9541 55.3709 36.4106 52.8158 35.9585 50.1896L41.5056 49.2142Z" fill="#E4897B"/>
    <path d="M34.2313 47.9697C33.1798 51.3782 37.4417 61.5429 37.4417 61.5429L45.9301 59.4094C45.9301 59.4094 45.605 54.1264 43.6696 49.9356C40.7538 43.6163 35.4911 43.8805 34.2313 47.9697Z" fill="#263238"/>
    <path d="M54.9364 67.8315L59.1628 67.7249L57.1309 72.124C57.1309 72.124 55.4089 72.3525 53.9967 70.0311L52.5083 68.2531L54.2202 67.9128C54.4558 67.8632 54.6957 67.836 54.9364 67.8315Z" fill="#E4897B"/>
    <path d="M61.8301 68.5427L59.4122 72.19L57.1313 72.124L59.1633 67.7249L61.8301 68.5427Z" fill="#E4897B"/>
    <path d="M40.2455 151.983L40.0525 156.438H36.3188L36.5119 151.983H40.2455Z" fill="#CE6F64"/>
    <path d="M9.77734 139.969L12.9014 142.017L9.34555 145.014L6.22656 142.972L9.77734 139.969Z" fill="#CE6F64"/>
    <path d="M26.0678 31.7448C26.2913 35.4378 26.2354 37.617 28.0997 39.5118C30.9038 42.3717 35.4705 40.6802 36.3544 36.9719C37.1519 33.6497 36.6541 28.1636 33.0373 26.6904C32.2392 26.3683 31.3724 26.2542 30.5182 26.3589C29.664 26.4635 28.8504 26.7835 28.1537 27.2887C27.457 27.794 26.9001 28.4679 26.5353 29.2474C26.1704 30.0268 26.0096 30.8862 26.0678 31.7448Z" fill="#E4897B"/>
    <path d="M21.72 31.0947C22.6394 34.4626 24.8034 38.3435 27.6024 38.5924C31.0769 38.8972 32.6466 35.3058 33.1038 31.5976C35.1865 30.1701 34.0943 28.6005 36.1821 28.4024C38.8643 28.1484 38.0058 23.2413 34.4753 22.4539C34.4753 22.4539 35.6589 24.6637 33.1749 23.5461C30.8126 22.4234 28.1881 21.9684 25.5857 22.2304C25.5857 22.2304 28.7555 23.8153 25.6568 24.5214C22.5581 25.2275 21.6336 27.1375 23.061 28.2906C23.061 28.2957 21.1155 28.8799 21.72 31.0947Z" fill="#263238"/>
    <path d="M30.9853 32.3594C31.0535 33.2774 31.4232 34.1471 32.0368 34.8332C32.8496 35.7324 33.6979 35.1736 33.8401 34.0814C33.9722 33.101 33.703 31.4501 32.7073 30.9523C31.7117 30.4545 30.9193 31.252 30.9853 32.3594Z" fill="#E4897B"/>
    <path d="M32.3573 77.5034C32.3573 77.5034 35.9944 103.842 33.1294 114.398C28.5881 131.11 11.2254 145.217 11.2254 145.217L5.33789 141.356C5.33789 141.356 20.1251 129.444 21.9336 115.449C23.5591 102.887 19.48 87.6934 19.48 77.4983L32.3573 77.5034Z" fill="#00CF83"/>
    <path opacity="0.1" d="M32.3573 77.5034C32.3573 77.5034 35.9944 103.842 33.1294 114.398C28.5881 131.11 11.2254 145.217 11.2254 145.217L5.33789 141.356C5.33789 141.356 20.1251 129.444 21.9336 115.449C23.5591 102.887 19.48 87.6934 19.48 77.4983L32.3573 77.5034Z" fill="black"/>
    <path d="M33.8608 92.5601C32.8925 91.4508 31.8266 90.4307 30.6758 89.5122C31.2955 98.0615 31.8035 110.725 31.2396 119.722C31.9978 117.997 32.6293 116.22 33.1293 114.403C34.5263 109.247 34.3789 100.342 33.8608 92.5601Z" fill="#00CF83"/>
    <path opacity="0.3" d="M33.8608 92.5601C32.8925 91.4508 31.8266 90.4307 30.6758 89.5122C31.2955 98.0615 31.8035 110.725 31.2396 119.722C31.9978 117.997 32.6293 116.22 33.1293 114.403C34.5263 109.247 34.3789 100.342 33.8608 92.5601Z" fill="black"/>
    <path d="M13.5976 143.901C13.623 143.901 11.3168 145.425 11.3168 145.425L4.88574 141.209L6.91766 139.527L13.5976 143.901Z" fill="#00CF83"/>
    <path opacity="0.3" d="M13.5976 143.901C13.623 143.901 11.3168 145.425 11.3168 145.425L4.88574 141.209L6.91766 139.527L13.5976 143.901Z" fill="black"/>
    <path d="M39.438 77.5034C39.438 77.5034 45.0562 101.328 45.4524 112.711C45.8995 125.472 41.4445 155.575 41.4445 155.575H35.1202C35.1202 155.575 34.343 125.238 34.0636 113.616C33.7537 100.942 26.3169 77.5034 26.3169 77.5034H39.438Z" fill="#00CF83"/>
    <path opacity="0.1" d="M39.438 77.5034C39.438 77.5034 45.0562 101.328 45.4524 112.711C45.8995 125.472 41.4445 155.575 41.4445 155.575H35.1202C35.1202 155.575 34.343 125.238 34.0636 113.616C33.7537 100.942 26.3169 77.5034 26.3169 77.5034H39.438Z" fill="black"/>
    <path d="M42.6589 153.06C42.6894 153.06 42.3034 155.681 42.3034 155.681H34.6126L34.4043 153.34L42.6589 153.06Z" fill="#00CF83"/>
    <path opacity="0.3" d="M42.6589 153.06C42.6894 153.06 42.3034 155.681 42.3034 155.681H34.6126L34.4043 153.34L42.6589 153.06Z" fill="black"/>
    </g>
    <g opacity="0.2">
    <path d="M173.445 54.796C173.877 55.2024 174.217 55.5478 174.573 55.9339C174.928 56.32 175.264 56.6959 175.589 57.087C176.249 57.8642 176.869 58.6821 177.468 59.505C178.665 61.1557 179.73 62.8985 180.653 64.7169L180.841 65.0877C180.933 65.2672 181.009 65.4541 181.07 65.6464C181.192 66.0181 181.268 66.4039 181.293 66.7945C181.326 67.4832 181.232 68.1721 181.014 68.8264C180.643 69.9131 180.092 70.9297 179.383 71.8336C178.107 73.4729 176.601 74.9202 174.913 76.1311L173.648 74.6783C174.243 73.9824 174.862 73.2356 175.416 72.4889C175.979 71.7654 176.489 71.0014 176.94 70.203C177.361 69.5064 177.673 68.7491 177.864 67.9577C177.93 67.6746 177.942 67.3817 177.9 67.0942C177.882 66.9975 177.851 66.9035 177.809 66.8148C177.79 66.7758 177.767 66.7385 177.743 66.703L177.58 66.4287C176.6 64.8313 175.537 63.2866 174.395 61.8011C173.831 61.0543 173.227 60.3381 172.617 59.632C172.317 59.2764 172.007 58.931 171.698 58.5855C171.388 58.2401 171.052 57.8947 170.783 57.6255L173.445 54.796Z" fill="#E4897B"/>
    <path d="M174.136 74.2514L170.341 73.6317L172.327 76.9539C172.327 76.9539 174.771 76.8675 175.467 75.43L174.136 74.2514Z" fill="#E4897B"/>
    <path d="M167.537 75.1658L169.346 77.8632L172.327 76.9539L170.341 73.6317L167.537 75.1658Z" fill="#E4897B"/>
    <path d="M173.953 160.958C173.695 160.981 173.437 160.91 173.226 160.76C173.163 160.7 173.116 160.625 173.09 160.541C173.064 160.457 173.06 160.368 173.079 160.283C173.083 160.228 173.101 160.176 173.133 160.131C173.164 160.086 173.207 160.051 173.257 160.029C173.699 159.831 174.857 160.572 174.989 160.659C175.004 160.668 175.016 160.682 175.022 160.698C175.029 160.715 175.029 160.733 175.025 160.75C175.023 160.768 175.015 160.784 175.003 160.797C174.991 160.809 174.976 160.818 174.959 160.821C174.63 160.905 174.292 160.951 173.953 160.958ZM173.445 160.171C173.408 160.165 173.37 160.165 173.333 160.171C173.311 160.182 173.292 160.198 173.278 160.219C173.265 160.239 173.257 160.263 173.257 160.288C173.243 160.345 173.245 160.404 173.261 160.46C173.277 160.516 173.307 160.567 173.348 160.608C173.541 160.781 174.039 160.806 174.705 160.674C174.323 160.422 173.895 160.251 173.445 160.171Z" fill="#00CF83"/>
    <path d="M174.969 160.816H174.923C174.563 160.608 173.867 159.8 173.953 159.358C173.97 159.289 174.008 159.226 174.063 159.18C174.118 159.135 174.186 159.108 174.258 159.104C174.327 159.094 174.396 159.1 174.462 159.121C174.528 159.142 174.589 159.178 174.639 159.226C175.055 159.592 175.061 160.689 175.061 160.75C175.06 160.766 175.055 160.781 175.047 160.794C175.039 160.807 175.028 160.818 175.015 160.826L174.969 160.816ZM174.319 159.292H174.278C174.167 159.292 174.141 159.353 174.131 159.399C174.08 159.658 174.512 160.278 174.873 160.567C174.881 160.141 174.759 159.723 174.522 159.368C174.492 159.34 174.456 159.319 174.416 159.305C174.377 159.292 174.335 159.288 174.294 159.292H174.319Z" fill="#00CF83"/>
    <path d="M156.641 160.958C156.317 160.989 155.992 160.907 155.722 160.725C155.661 160.671 155.614 160.603 155.585 160.527C155.555 160.451 155.545 160.369 155.554 160.288C155.557 160.239 155.573 160.191 155.6 160.149C155.626 160.107 155.663 160.073 155.706 160.049C156.179 159.785 157.693 160.557 157.865 160.654C157.881 160.664 157.894 160.678 157.902 160.695C157.91 160.712 157.913 160.731 157.911 160.75C157.908 160.768 157.9 160.784 157.887 160.797C157.874 160.81 157.858 160.818 157.84 160.821C157.446 160.905 157.044 160.951 156.641 160.958ZM155.965 160.171C155.907 160.167 155.849 160.179 155.798 160.207C155.78 160.215 155.764 160.229 155.753 160.246C155.743 160.263 155.737 160.283 155.737 160.303C155.729 160.356 155.734 160.41 155.752 160.46C155.77 160.511 155.799 160.556 155.838 160.593C156.072 160.801 156.697 160.837 157.54 160.694C157.049 160.432 156.516 160.255 155.965 160.171Z" fill="#00CF83"/>
    <path d="M157.825 160.816H157.784C157.332 160.613 156.433 159.8 156.504 159.359C156.504 159.257 156.595 159.13 156.844 159.105C156.935 159.095 157.027 159.104 157.115 159.131C157.202 159.158 157.283 159.203 157.352 159.262C157.83 159.658 157.921 160.684 157.921 160.73C157.923 160.746 157.921 160.761 157.915 160.776C157.908 160.79 157.898 160.802 157.886 160.811C157.866 160.82 157.845 160.821 157.825 160.816ZM156.915 159.293H156.86C156.697 159.293 156.687 159.374 156.682 159.394C156.641 159.653 157.251 160.298 157.698 160.578C157.654 160.143 157.476 159.734 157.19 159.404C157.113 159.339 157.016 159.299 156.915 159.293Z" fill="#00CF83"/>
    <path d="M163.829 43.1176C163.682 45.4136 163.285 50.0769 165.048 51.3671C165.048 51.3671 164.728 53.7191 160.568 54.2677C155.996 54.862 158.084 52.2815 158.084 52.2815C160.507 51.357 160.197 49.513 159.536 47.8265L163.829 43.1176Z" fill="#E4897B"/>
    <path d="M154.365 39.0589C154.34 39.059 154.315 39.0535 154.292 39.043C154.269 39.0325 154.249 39.0171 154.233 38.998C154.088 38.8256 153.904 38.6899 153.697 38.6016C153.489 38.5134 153.264 38.4752 153.039 38.49C153.015 38.4943 152.991 38.4938 152.967 38.4884C152.944 38.4829 152.922 38.4728 152.902 38.4585C152.883 38.4443 152.866 38.4262 152.854 38.4054C152.842 38.3846 152.834 38.3615 152.831 38.3376C152.825 38.2898 152.838 38.2417 152.868 38.2036C152.897 38.1656 152.941 38.1407 152.988 38.1344C153.275 38.1101 153.564 38.1557 153.829 38.2672C154.094 38.3786 154.329 38.5527 154.512 38.7744C154.534 38.8009 154.548 38.8331 154.553 38.8672C154.557 38.9014 154.552 38.9361 154.538 38.9674C154.524 38.9987 154.501 39.0253 154.472 39.0442C154.443 39.0631 154.41 39.0735 154.375 39.0741L154.365 39.0589Z" fill="#263238"/>
    <path d="M153.573 41.309C153.392 42.0376 153.114 42.7382 152.745 43.3917C152.914 43.4829 153.102 43.5357 153.294 43.5462C153.486 43.5568 153.679 43.5248 153.857 43.4526L153.573 41.309Z" fill="#DE5753"/>
    <path d="M153.776 40.7503C153.817 41.0551 153.69 41.3192 153.492 41.3497C153.294 41.3802 153.095 41.1465 153.06 40.8417C153.024 40.5369 153.146 40.2728 153.344 40.2474C153.542 40.222 153.741 40.4252 153.776 40.7503Z" fill="#263238"/>
    <path d="M153.436 40.2526L152.679 40.1357C152.679 40.1357 153.126 40.659 153.436 40.2526Z" fill="#263238"/>
    <path d="M162.01 160.735H158.2L157.946 151.922H161.756L162.01 160.735Z" fill="#E4897B"/>
    <path d="M179.307 160.735H175.497L174.273 151.922H178.083L179.307 160.735Z" fill="#E4897B"/>
    <path d="M175.264 160.308H179.541C179.614 160.307 179.684 160.333 179.74 160.381C179.795 160.429 179.831 160.495 179.841 160.567L180.349 163.955C180.358 164.041 180.349 164.127 180.323 164.209C180.296 164.291 180.253 164.366 180.195 164.43C180.138 164.494 180.067 164.545 179.989 164.579C179.91 164.614 179.825 164.632 179.739 164.631C178.251 164.606 177.529 164.519 175.65 164.519C174.492 164.519 172.8 164.636 171.205 164.636C169.61 164.636 169.523 163.056 170.189 162.914C173.171 162.274 173.643 161.39 174.644 160.542C174.819 160.397 175.037 160.315 175.264 160.308Z" fill="#263238"/>
    <path d="M158.074 160.308H162.346C162.419 160.307 162.491 160.333 162.547 160.381C162.603 160.428 162.64 160.495 162.651 160.567L163.159 163.955C163.168 164.041 163.159 164.127 163.133 164.209C163.106 164.291 163.063 164.366 163.005 164.43C162.948 164.494 162.877 164.545 162.799 164.579C162.72 164.614 162.635 164.632 162.549 164.631C161.061 164.606 160.339 164.519 158.46 164.519C157.302 164.519 154.904 164.636 153.309 164.636C151.714 164.636 151.627 163.056 152.293 162.914C155.275 162.274 156.448 161.39 157.454 160.542C157.629 160.397 157.847 160.315 158.074 160.308Z" fill="#263238"/>
    <path d="M157.946 151.922L158.078 156.468H161.888L161.756 151.922H157.946Z" fill="#CE6F64"/>
    <path d="M178.083 151.922H174.273L174.908 156.468H178.713L178.083 151.922Z" fill="#CE6F64"/>
    <path d="M163.88 38.3628C164.139 42.132 164.327 43.722 162.691 45.891C160.227 49.1472 155.544 48.6443 154.162 45.0275C152.918 41.7713 152.704 36.1582 156.169 34.1872C156.931 33.7504 157.792 33.5156 158.67 33.505C159.549 33.4944 160.415 33.7084 161.188 34.1267C161.96 34.545 162.613 35.1537 163.084 35.895C163.555 36.6364 163.829 37.4858 163.88 38.3628Z" fill="#E4897B"/>
    <path d="M166.074 41.8628C168.188 43.0413 169.757 40.1357 169.757 40.1357C169.757 40.1357 165.968 40.5472 166.308 38.2917C166.755 35.2998 164.611 31.6626 159.237 32.13C158.937 32.1554 158.653 32.1909 158.373 32.2366C157.811 31.97 157.175 31.9011 156.568 32.0412C155.961 32.1814 155.42 32.5223 155.031 33.0088C153.507 33.1358 151.45 34.9543 152.847 37.3571C152.945 37.081 153.097 36.8272 153.294 36.6103C153.41 38.0174 154.64 40.2525 156.174 40.3999C156.504 42.3251 155.224 44.5551 155.666 46.5667C156.321 49.4673 161.213 50.1226 161.213 50.1226C161.044 49.7603 160.982 49.3578 161.032 48.9614C161.082 48.565 161.244 48.1909 161.498 47.8824C164.82 49.4063 167.009 47.9179 167.009 47.9179C164.743 47.0747 165.429 45.5711 165.429 45.5711C166.212 45.9184 167.098 45.9489 167.902 45.6562C168.707 45.3635 169.366 44.7703 169.742 44.0014C168.989 44.0372 168.243 43.8542 167.592 43.4747C166.941 43.0952 166.414 42.5354 166.074 41.8628Z" fill="#263238"/>
    <path d="M157.499 40.9789C157.508 41.3407 157.445 41.7006 157.315 42.038C157.184 42.3754 156.988 42.6836 156.737 42.9448C156.067 43.6408 155.244 43.1531 155.02 42.2641C154.822 41.4615 154.934 40.1357 155.808 39.77C156 39.6944 156.208 39.6681 156.413 39.6935C156.618 39.7188 156.814 39.795 156.982 39.9152C157.15 40.0353 157.285 40.1955 157.376 40.3813C157.466 40.5671 157.508 40.7725 157.499 40.9789Z" fill="#E4897B"/>
    <path d="M160.665 76.0957C160.665 76.0957 161.63 101.17 163.926 115.891C165.775 127.788 173.989 155.584 173.989 155.584H179.18C179.18 155.584 174.898 128.738 173.958 116.978C171.581 87.2154 177.753 80.825 171.926 74.6277L160.665 76.0957Z" fill="#263238"/>
    <path d="M165.002 84.0251C165.002 84.0251 162.655 83.6187 161.284 88.089C161.792 96.557 162.66 107.793 163.925 115.891C164.205 117.694 164.631 119.868 165.154 122.251C164.164 107.946 165.002 84.0251 165.002 84.0251Z" fill="#161F33"/>
    <path d="M156.616 76.6237C156.616 76.6237 152.339 104.364 152.588 115.972C152.847 128.046 157.271 155.594 157.271 155.594H162.417C162.417 155.594 161.604 128.763 162.056 116.906C162.564 103.978 167.842 75.1658 167.842 75.1658L156.616 76.6237Z" fill="#263238"/>
    <path d="M179.932 155.828H173.028L172.49 153.511L179.881 153.562L179.932 155.828Z" fill="#00CF83"/>
    <path opacity="0.2" d="M179.932 155.828H173.028L172.49 153.511L179.881 153.562L179.932 155.828Z" fill="black"/>
    <path d="M171.667 51.3721C173.653 51.5652 176.67 57.2088 176.67 57.2088L171.657 61.0542C171.657 61.0542 167.506 57.412 167.999 55.3649C168.512 53.2364 169.762 51.1944 171.667 51.3721Z" fill="#00CF83"/>
    <path opacity="0.1" d="M171.667 51.3721C173.653 51.5652 176.67 57.2088 176.67 57.2088L171.657 61.0542C171.657 61.0542 167.506 57.412 167.999 55.3649C168.512 53.2364 169.762 51.1944 171.667 51.3721Z" fill="black"/>
    <path d="M170.169 53.8004C169.662 53.664 169.138 53.6057 168.614 53.6277C168.348 54.1831 168.141 54.7655 167.999 55.365C167.492 57.3969 171.657 61.0543 171.657 61.0543L172.028 60.7699L170.169 53.8004Z" fill="#00CF83"/>
    <path opacity="0.3" d="M170.169 53.8004C169.662 53.664 169.138 53.6057 168.614 53.6277C168.348 54.1831 168.141 54.7655 167.999 55.365C167.492 57.3969 171.657 61.0543 171.657 61.0543L172.028 60.7699L170.169 53.8004Z" fill="black"/>
    <path d="M154.914 59.2203C153.466 62.8829 151.942 66.6064 150.728 70.279C150.647 70.5127 150.581 70.7362 150.51 70.9648L150.337 71.5287C150.29 71.6947 150.29 71.8706 150.337 72.0366C150.624 72.6717 151.079 73.2163 151.653 73.6114C153.171 74.7011 154.826 75.5874 156.575 76.2478L156.118 78.1172C153.966 77.8335 151.886 77.155 149.981 76.1157C148.809 75.4895 147.854 74.5224 147.243 73.3422C146.892 72.5878 146.771 71.7471 146.893 70.9242C146.904 70.8234 146.921 70.7234 146.944 70.6245L146.994 70.4111L147.081 70.0251C147.142 69.766 147.203 69.5171 147.269 69.2631C147.777 67.2312 148.427 65.3009 149.113 63.3858C149.798 61.4707 150.515 59.581 151.322 57.6964L154.914 59.2203Z" fill="#E4897B"/>
    <path d="M151.831 54.0798C151.831 54.0798 150.114 54.9484 156.616 76.6238L171.947 74.6224C170.87 68.4149 170.362 64.5695 171.667 51.3722C169.469 51.2148 167.262 51.2148 165.063 51.3722C162.723 51.5083 160.395 51.8139 158.099 52.2866C155.158 52.9419 151.831 54.0798 151.831 54.0798Z" fill="#00CF83"/>
    <path opacity="0.1" d="M151.831 54.0798C151.831 54.0798 150.114 54.9484 156.616 76.6238L171.947 74.6224C170.87 68.4149 170.362 64.5695 171.667 51.3722C169.469 51.2148 167.262 51.2148 165.063 51.3722C162.723 51.5083 160.395 51.8139 158.099 52.2866C155.158 52.9419 151.831 54.0798 151.831 54.0798Z" fill="black"/>
    <path d="M172.058 73.6927L172.937 74.9678C173.003 75.0693 172.891 75.1913 172.719 75.2167L156.641 77.3197C156.504 77.3197 156.377 77.2841 156.357 77.1978L156.042 75.8415C156.016 75.75 156.128 75.6535 156.28 75.6332L171.804 73.6013C171.851 73.5938 171.899 73.5983 171.943 73.6143C171.987 73.6303 172.027 73.6573 172.058 73.6927Z" fill="#00CF83"/>
    <path opacity="0.2" d="M172.058 73.6927L172.937 74.9678C173.003 75.0693 172.891 75.1913 172.719 75.2167L156.641 77.3197C156.504 77.3197 156.377 77.2841 156.357 77.1978L156.042 75.8415C156.016 75.75 156.128 75.6535 156.28 75.6332L171.804 73.6013C171.851 73.5938 171.899 73.5983 171.943 73.6143C171.987 73.6303 172.027 73.6573 172.058 73.6927Z" fill="black"/>
    <path d="M170.199 75.6993L170.616 75.6434C170.697 75.6434 170.753 75.5825 170.743 75.5317L170.316 73.7741C170.3 73.7441 170.274 73.7206 170.242 73.7076C170.211 73.6947 170.176 73.693 170.143 73.7029L169.727 73.7537C169.64 73.7537 169.584 73.8147 169.6 73.8706L170.026 75.6231C170.037 75.679 170.118 75.7095 170.199 75.6993Z" fill="#263238"/>
    <path d="M160.121 76.9997L160.537 76.9439C160.619 76.9439 160.68 76.8829 160.664 76.8321L160.238 75.0745C160.221 75.0449 160.195 75.0214 160.164 75.0077C160.133 74.9939 160.098 74.9906 160.065 74.9983L159.648 75.0542C159.567 75.0542 159.506 75.1151 159.521 75.1659L159.948 76.9236C159.958 76.9998 160.04 77.0302 160.121 76.9997Z" fill="#263238"/>
    <path d="M152.547 61.4354C152.968 63.3962 153.563 65.8802 154.431 69.0246L154.619 61.0544L152.547 61.4354Z" fill="#00CF83"/>
    <path opacity="0.3" d="M152.547 61.4354C152.968 63.3962 153.563 65.8802 154.431 69.0246L154.619 61.0544L152.547 61.4354Z" fill="black"/>
    <path d="M151.83 54.0796C149.925 54.8467 148.274 61.364 148.274 61.364L154.827 64.5541C154.827 64.5541 157.992 56.5839 156.575 55.0295C155.158 53.4751 154.025 53.2008 151.83 54.0796Z" fill="#00CF83"/>
    <path opacity="0.1" d="M151.83 54.0796C149.925 54.8467 148.274 61.364 148.274 61.364L154.827 64.5541C154.827 64.5541 157.992 56.5839 156.575 55.0295C155.158 53.4751 154.025 53.2008 151.83 54.0796Z" fill="black"/>
    <path d="M163.295 155.828H156.392L155.854 153.511L163.539 153.562L163.295 155.828Z" fill="#00CF83"/>
    <path opacity="0.2" d="M163.295 155.828H156.392L155.854 153.511L163.539 153.562L163.295 155.828Z" fill="black"/>
    <path d="M156.682 75.6181L156.128 75.3895C155.992 75.3341 155.843 75.3158 155.698 75.3363C155.552 75.3567 155.415 75.4154 155.299 75.5061C155.184 75.5969 155.094 75.7167 155.04 75.8532C154.986 75.9897 154.968 76.1382 154.99 76.2835L155.391 78.9301C155.411 79.0626 155.459 79.1891 155.533 79.3006C155.607 79.412 155.705 79.5056 155.82 79.5747C155.935 79.6437 156.063 79.6864 156.196 79.6996C156.33 79.7129 156.464 79.6964 156.59 79.6514C156.792 79.5783 156.98 79.4737 157.149 79.3416C157.333 79.1892 157.478 78.9958 157.573 78.777C157.669 78.5582 157.711 78.3201 157.698 78.0818L157.642 76.9845C157.632 76.6881 157.536 76.4008 157.365 76.1581C157.195 75.9154 156.957 75.7277 156.682 75.6181Z" fill="#E4897B"/>
    </g>
</svg> 