<svg width="36" height="36" viewBox="0 0 36 36" fill="none" xmlns="http://www.w3.org/2000/svg">
<rect width="36" height="36" rx="8" fill="#007047"/>
<path d="M8.64956 21.6235C7.67553 21.6235 6.84761 21.2826 6.16579 20.6008C5.48398 19.919 5.14307 19.091 5.14307 18.117C5.14307 17.143 5.48398 16.3151 6.16579 15.6333C6.84761 14.9514 7.67553 14.6105 8.64956 14.6105V12.2729C8.64956 11.63 8.87846 11.0797 9.33625 10.6219C9.79404 10.1641 10.3444 9.9352 10.9872 9.9352H14.4937C14.4937 8.96118 14.8346 8.13326 15.5164 7.45144C16.1983 6.76962 17.0262 6.42871 18.0002 6.42871C18.9742 6.42871 19.8022 6.76962 20.484 7.45144C21.1658 8.13326 21.5067 8.96118 21.5067 9.9352H25.0132C25.6561 9.9352 26.2064 10.1641 26.6642 10.6219C27.122 11.0797 27.3509 11.63 27.3509 12.2729V14.6105C28.3249 14.6105 29.1528 14.9514 29.8346 15.6333C30.5164 16.3151 30.8574 17.143 30.8574 18.117C30.8574 19.091 30.5164 19.919 29.8346 20.6008C29.1528 21.2826 28.3249 21.6235 27.3509 21.6235V26.2988C27.3509 26.9417 27.122 27.492 26.6642 27.9498C26.2064 28.4076 25.6561 28.6365 25.0132 28.6365H10.9872C10.3444 28.6365 9.79404 28.4076 9.33625 27.9498C8.87846 27.492 8.64956 26.9417 8.64956 26.2988V21.6235ZM14.4937 19.2859C14.9807 19.2859 15.3947 19.1154 15.7356 18.7745C16.0765 18.4336 16.247 18.0196 16.247 17.5326C16.247 17.0456 16.0765 16.6316 15.7356 16.2907C15.3947 15.9498 14.9807 15.7794 14.4937 15.7794C14.0067 15.7794 13.5927 15.9498 13.2518 16.2907C12.9109 16.6316 12.7405 17.0456 12.7405 17.5326C12.7405 18.0196 12.9109 18.4336 13.2518 18.7745C13.5927 19.1154 14.0067 19.2859 14.4937 19.2859ZM21.5067 19.2859C21.9937 19.2859 22.4077 19.1154 22.7486 18.7745C23.0895 18.4336 23.26 18.0196 23.26 17.5326C23.26 17.0456 23.0895 16.6316 22.7486 16.2907C22.4077 15.9498 21.9937 15.7794 21.5067 15.7794C21.0197 15.7794 20.6057 15.9498 20.2648 16.2907C19.9239 16.6316 19.7535 17.0456 19.7535 17.5326C19.7535 18.0196 19.9239 18.4336 20.2648 18.7745C20.6057 19.1154 21.0197 19.2859 21.5067 19.2859ZM13.3249 23.9612H22.6755V21.6235H13.3249V23.9612ZM10.9872 26.2988H25.0132V12.2729H10.9872V26.2988Z" fill="white" fill-opacity="0.8"/>
</svg> 