<svg width="30" height="30" viewBox="0 0 16 17" fill="none" xmlns="http://www.w3.org/2000/svg">
<mask id="mask0_245_2284" style="mask-type:alpha" maskUnits="userSpaceOnUse" x="0" y="0" width="16" height="17">
<rect y="0.5" width="16" height="16" fill="#D9D9D9"/>
</mask>
<g mask="url(#mask0_245_2284)">
<path d="M14 5.16667V13.1667C14 13.5333 13.8694 13.8472 13.6083 14.1083C13.3472 14.3694 13.0333 14.5 12.6667 14.5H3.33333C2.96667 14.5 2.65278 14.3694 2.39167 14.1083C2.13056 13.8472 2 13.5333 2 13.1667V3.83333C2 3.46667 2.13056 3.15278 2.39167 2.89167C2.65278 2.63056 2.96667 2.5 3.33333 2.5H11.3333L14 5.16667ZM12.6667 5.73333L10.7667 3.83333H3.33333V13.1667H12.6667V5.73333ZM8 12.5C8.55556 12.5 9.02778 12.3056 9.41667 11.9167C9.80556 11.5278 10 11.0556 10 10.5C10 9.94444 9.80556 9.47222 9.41667 9.08333C9.02778 8.69444 8.55556 8.5 8 8.5C7.44444 8.5 6.97222 8.69444 6.58333 9.08333C6.19444 9.47222 6 9.94444 6 10.5C6 11.0556 6.19444 11.5278 6.58333 11.9167C6.97222 12.3056 7.44444 12.5 8 12.5ZM4 7.16667H10V4.5H4V7.16667Z" fill="#00CF83"/>
</g>
</svg> 