<svg width="48" height="48" viewBox="0 0 48 48" fill="none" xmlns="http://www.w3.org/2000/svg">
    <circle cx="24" cy="24" r="24" fill="#004949"/>
    <mask id="mask0_1_1032" style="mask-type:alpha" maskUnits="userSpaceOnUse" x="8" y="8" width="32" height="32">
    <rect x="8" y="8" width="32" height="32" fill="#D9D9D9"/>
    </mask>
    <g mask="url(#mask0_1_1032)">
    <path d="M36 17.3333V33.3333C36 34.0667 35.7389 34.6944 35.2167 35.2167C34.6944 35.7389 34.0667 36 33.3333 36H14.6667C13.9333 36 13.3056 35.7389 12.7833 35.2167C12.2611 34.6944 12 34.0667 12 33.3333V14.6667C12 13.9333 12.2611 13.3056 12.7833 12.7833C13.3056 12.2611 13.9333 12 14.6667 12H30.6667L36 17.3333ZM33.3333 18.4667L29.5333 14.6667H14.6667V33.3333H33.3333V18.4667ZM24 32C25.1111 32 26.0556 31.6111 26.8333 30.8333C27.6111 30.0556 28 29.1111 28 28C28 26.8889 27.6111 25.9444 26.8333 25.1667C26.0556 24.3889 25.1111 24 24 24C22.8889 24 21.9444 24.3889 21.1667 25.1667C20.3889 25.9444 20 26.8889 20 28C20 29.1111 20.3889 30.0556 21.1667 30.8333C21.9444 31.6111 22.8889 32 24 32ZM16 21.3333H28V16H16V21.3333Z" fill="#00CF83"/>
    </g>
    </svg> 