<svg width="59.99999999999999" height="59.99999999999999" xmlns="http://www.w3.org/2000/svg" fill="none">
 <mask id="mask0_102_774" maskUnits="userSpaceOnUse" x="0" y="0" width="33" height="32">
  <rect x="0.96875" width="32" height="32" fill="#D9D9D9" id="svg_1"/>
 </mask>

 <g>
  <title>Layer 1</title>
  <circle transform="rotate(1, 30, 30)" cx="30" cy="30" r="29" fill="#FFEEB2" id="svg_3"/>
  <path d="m29.99996,42.00099c-0.3521,0 -0.68775,-0.05989 -1.00687,-0.17957c-0.31912,-0.11977 -0.6108,-0.28937 -0.87494,-0.5088l-10.59752,-9.60677c-0.24211,-0.23945 -0.42919,-0.50377 -0.56125,-0.79305c-0.13205,-0.28937 -0.19809,-0.59355 -0.19809,-0.91282c0,-0.31927 0.06603,-0.62848 0.19809,-0.92773c0.13205,-0.29934 0.31914,-0.55872 0.56125,-0.77815l10.59752,-9.60677c0.26415,-0.23942 0.55583,-0.414 0.87494,-0.52374c0.31912,-0.10973 0.65477,-0.1646 1.00687,-0.1646c0.3522,0 0.6933,0.05487 1.02351,0.1646c0.33011,0.10974 0.61624,0.28432 0.8583,0.52374l10.59766,9.60677c0.26405,0.21943 0.45669,0.47881 0.57772,0.77815c0.12103,0.29925 0.18155,0.60846 0.18155,0.92773c0,0.31927 -0.06052,0.62345 -0.18155,0.91282c-0.12103,0.28928 -0.31367,0.5536 -0.57772,0.79305l-10.59766,9.60677c-0.24206,0.21943 -0.52819,0.38903 -0.8583,0.5088c-0.33021,0.11968 -0.67131,0.17957 -1.02351,0.17957zm0,-2.39424l10.59766,-9.60677l-10.59766,-9.60677l-10.59752,9.60677l10.59752,9.60677zm-1.32054,-8.40969l2.64117,0l0,-7.1826l-2.64117,0l0,7.1826zm1.32054,3.59132c0.37418,0 0.68785,-0.11465 0.94091,-0.34414c0.25315,-0.22949 0.37973,-0.51374 0.37973,-0.85294c0,-0.3392 -0.12658,-0.62345 -0.37973,-0.85294c-0.25305,-0.22949 -0.56672,-0.34414 -0.94091,-0.34414c-0.37408,0 -0.68775,0.11465 -0.94091,0.34414c-0.25305,0.22949 -0.37963,0.51374 -0.37963,0.85294c0,0.3392 0.12658,0.62345 0.37963,0.85294c0.25315,0.22949 0.56682,0.34414 0.94091,0.34414z" fill="#6B4426" id="svg_4"/>
 </g>
</svg>