<svg width="25" height="24" viewBox="0 0 25 24" fill="none" xmlns="http://www.w3.org/2000/svg">
    <mask id="mask0_1_766" style="mask-type:alpha" maskUnits="userSpaceOnUse" x="0" y="0" width="25" height="24">
    <rect x="0.242188" width="24" height="24" fill="#D9D9D9"/>
    </mask>
    <g mask="url(#mask0_1_766)">
    <path d="M8.64219 17L12.2422 13.4L15.8422 17L17.2422 15.6L13.6422 12L17.2422 8.4L15.8422 7L12.2422 10.6L8.64219 7L7.24219 8.4L10.8422 12L7.24219 15.6L8.64219 17ZM12.2422 22C10.8589 22 9.55885 21.7375 8.34219 21.2125C7.12552 20.6875 6.06719 19.975 5.16719 19.075C4.26719 18.175 3.55469 17.1167 3.02969 15.9C2.50469 14.6833 2.24219 13.3833 2.24219 12C2.24219 10.6167 2.50469 9.31667 3.02969 8.1C3.55469 6.88333 4.26719 5.825 5.16719 4.925C6.06719 4.025 7.12552 3.3125 8.34219 2.7875C9.55885 2.2625 10.8589 2 12.2422 2C13.6255 2 14.9255 2.2625 16.1422 2.7875C17.3589 3.3125 18.4172 4.025 19.3172 4.925C20.2172 5.825 20.9297 6.88333 21.4547 8.1C21.9797 9.31667 22.2422 10.6167 22.2422 12C22.2422 13.3833 21.9797 14.6833 21.4547 15.9C20.9297 17.1167 20.2172 18.175 19.3172 19.075C18.4172 19.975 17.3589 20.6875 16.1422 21.2125C14.9255 21.7375 13.6255 22 12.2422 22ZM12.2422 20C14.4755 20 16.3672 19.225 17.9172 17.675C19.4672 16.125 20.2422 14.2333 20.2422 12C20.2422 9.76667 19.4672 7.875 17.9172 6.325C16.3672 4.775 14.4755 4 12.2422 4C10.0089 4 8.11719 4.775 6.56719 6.325C5.01719 7.875 4.24219 9.76667 4.24219 12C4.24219 14.2333 5.01719 16.125 6.56719 17.675C8.11719 19.225 10.0089 20 12.2422 20Z" fill="#00CF83"/>
    </g>
</svg> 