<svg width="25" height="25" viewBox="0 0 16 17" fill="none" xmlns="http://www.w3.org/2000/svg">
    <mask id="mask0_38_897" style="mask-type:alpha" maskUnits="userSpaceOnUse" x="0" y="0" width="16" height="17">
    <rect y="0.5" width="16" height="16" fill="#D9D9D9"/>
    </mask>
    <g mask="url(#mask0_38_897)">
    <path d="M4.00016 9.83333H12.0002V8.5H4.00016V9.83333ZM4.00016 7.83333H12.0002V6.5H4.00016V7.83333ZM4.00016 5.83333H12.0002V4.49999H4.00016V5.83333ZM14.6668 15.1667L12.0002 12.5H2.66683C2.30016 12.5 1.98627 12.3694 1.72516 12.1083C1.46405 11.8472 1.3335 11.5333 1.3335 11.1667V3.16666C1.3335 2.79999 1.46405 2.48611 1.72516 2.22499C1.98627 1.96388 2.30016 1.83333 2.66683 1.83333H13.3335C13.7002 1.83333 14.0141 1.96388 14.2752 2.22499C14.5363 2.48611 14.6668 2.79999 14.6668 3.16666V15.1667ZM2.66683 3.16666V11.1667H12.5502L13.3335 11.95V3.16666H2.66683Z" fill="#ACE5C6"/>
    </g>
</svg> 