<svg width="25" height="24" viewBox="0 0 25 24" fill="none" xmlns="http://www.w3.org/2000/svg">
    <mask id="mask0_1_744" style="mask-type:alpha" maskUnits="userSpaceOnUse" x="0" y="0" width="25" height="24">
    <rect x="0.242188" width="24" height="24" fill="#D9D9D9"/>
    </mask>
    <g mask="url(#mask0_1_744)">
    <path d="M12.2422 21C9.94219 21 7.93802 20.2375 6.22969 18.7125C4.52135 17.1875 3.54219 15.2833 3.29219 13H5.34219C5.57552 14.7333 6.34635 16.1667 7.65469 17.3C8.96302 18.4333 10.4922 19 12.2422 19C14.1922 19 15.8464 18.3208 17.2047 16.9625C18.563 15.6042 19.2422 13.95 19.2422 12C19.2422 10.05 18.563 8.39583 17.2047 7.0375C15.8464 5.67917 14.1922 5 12.2422 5C11.0922 5 10.0172 5.26667 9.01719 5.8C8.01719 6.33333 7.17552 7.06667 6.49219 8H9.24219V10H3.24219V4H5.24219V6.35C6.09219 5.28333 7.12969 4.45833 8.35469 3.875C9.57969 3.29167 10.8755 3 12.2422 3C13.4922 3 14.663 3.2375 15.7547 3.7125C16.8464 4.1875 17.7964 4.82917 18.6047 5.6375C19.413 6.44583 20.0547 7.39583 20.5297 8.4875C21.0047 9.57917 21.2422 10.75 21.2422 12C21.2422 13.25 21.0047 14.4208 20.5297 15.5125C20.0547 16.6042 19.413 17.5542 18.6047 18.3625C17.7964 19.1708 16.8464 19.8125 15.7547 20.2875C14.663 20.7625 13.4922 21 12.2422 21ZM15.0422 16.2L11.2422 12.4V7H13.2422V11.6L16.4422 14.8L15.0422 16.2Z" fill="#00CF83"/>
    </g>
</svg> 